<svg width="179" height="37" viewBox="0 0 179 37" fill="none" xmlns="http://www.w3.org/2000/svg">
<path d="M9.8 0.899997V15.25C9.8 15.7833 9.91667 16.1667 10.15 16.4C10.4167 16.6333 10.9833 16.75 11.85 16.75H15.55V21.5H9.2C7.3 21.5 5.76667 21.3 4.6 20.9C3.46667 20.5 2.61667 19.8 2.05 18.8C1.51667 17.7667 1.16667 16.6667 1 15.5C0.866667 14.3333 0.8 12.7667 0.8 10.8C0.8 8.8 0.866667 7.28333 1 6.25C1.16667 5.21667 1.51667 4.25 2.05 3.35C2.61667 2.45 3.46667 1.81666 4.6 1.45C5.76667 1.08333 7.3 0.899997 9.2 0.899997H9.8ZM17.55 16.75H18.15C19.5833 16.75 20.6833 16.7833 21.45 16.85C22.25 16.8833 23.0167 17.0333 23.75 17.3C24.4833 17.5333 24.9833 17.8167 25.25 18.15C25.55 18.4833 25.8167 19.0667 26.05 19.9C26.3167 20.7 26.4667 21.5667 26.5 22.5C26.5333 23.4333 26.55 24.7667 26.55 26.5C26.55 28.2333 26.5333 29.6167 26.5 30.65C26.4667 31.65 26.3167 32.6167 26.05 33.55C25.8167 34.45 25.55 35.0833 25.25 35.45C24.9833 35.8167 24.4833 36.15 23.75 36.45C23.0167 36.7167 22.25 36.8833 21.45 36.95C20.6833 36.9833 19.5833 37 18.15 37H17.55V16.75ZM1.5 25.85H7.8C8.26667 25.85 8.55 25.9167 8.65 26.05C8.75 26.1833 8.8 26.4667 8.8 26.9V30.8C8.8 31.3333 8.86667 31.7167 9 31.95C9.16667 32.15 9.55 32.25 10.15 32.25H15.55V37H8.2C5.76667 37 3.91667 36.5833 2.65 35.75C1.41667 34.9167 0.8 33.4667 0.8 31.4V26.9C0.8 26.2 1.03333 25.85 1.5 25.85ZM11.8 0.849998H18.15C20.5833 0.849998 22.4167 1.26666 23.65 2.1C24.9167 2.93333 25.55 4.38333 25.55 6.45V10.95C25.55 11.65 25.3167 12 24.85 12H18.55C18.0833 12 17.8 11.9333 17.7 11.8C17.6 11.6667 17.55 11.3833 17.55 10.95V7.05C17.55 6.51667 17.4667 6.15 17.3 5.95C17.1667 5.71667 16.8 5.6 16.2 5.6H11.8V0.849998ZM46.2012 5.6H41.5512C41.0178 5.6 40.7512 5.73333 40.7512 6V37H35.5012C34.3678 37 33.6178 36.8167 33.2512 36.45C32.9178 36.0833 32.7512 35.3167 32.7512 34.15V3.7C32.7512 2.53333 32.9178 1.76667 33.2512 1.4C33.6178 1.03333 34.3678 0.849998 35.5012 0.849998H46.2012V5.6ZM48.2012 0.849998H53.4512C54.5845 0.849998 55.3178 1.03333 55.6512 1.4C56.0178 1.76667 56.2012 2.53333 56.2012 3.7V34.1C56.2012 35.2667 56.0178 36.05 55.6512 36.45C55.2845 36.8167 54.5512 37 53.4512 37H48.2012V20.25H42.7512V15.5H48.2012V0.849998ZM76.8176 20.25H71.3176V37H66.0676C64.9342 37 64.1842 36.8167 63.8176 36.45C63.4842 36.0833 63.3176 35.3167 63.3176 34.15V0.849998H69.5176C70.0509 0.849998 70.4842 1.03333 70.8176 1.4C71.1509 1.76667 71.3176 2.25 71.3176 2.85V15.5H76.8176V20.25ZM78.8176 0.849998H84.0676C85.2009 0.849998 85.9342 1.03333 86.2676 1.4C86.6342 1.76667 86.8176 2.53333 86.8176 3.7V37H80.6176C80.0842 37 79.6509 36.8167 79.3176 36.45C78.9842 36.0833 78.8176 35.6 78.8176 35V0.849998ZM107.432 5.6H102.782C102.248 5.6 101.982 5.73333 101.982 6V37H96.7316C95.5983 37 94.8483 36.8167 94.4816 36.45C94.1483 36.0833 93.9816 35.3167 93.9816 34.15V3.7C93.9816 2.53333 94.1483 1.76667 94.4816 1.4C94.8483 1.03333 95.5983 0.849998 96.7316 0.849998H107.432V5.6ZM109.432 0.849998H114.682C115.815 0.849998 116.548 1.03333 116.882 1.4C117.248 1.76667 117.432 2.53333 117.432 3.7V34.1C117.432 35.2667 117.248 36.05 116.882 36.45C116.515 36.8167 115.782 37 114.682 37H109.432V20.25H103.982V15.5H109.432V0.849998ZM132.548 37H127.298C126.165 37 125.415 36.8167 125.048 36.45C124.715 36.0833 124.548 35.3167 124.548 34.15V2.85C124.548 2.25 124.715 1.76667 125.048 1.4C125.381 1.03333 125.815 0.849998 126.348 0.849998H132.548V37ZM134.548 0.849998H140.898C142.831 0.849998 144.348 0.999998 145.448 1.3C146.581 1.6 147.431 2.2 147.998 3.1C148.565 3.96667 148.915 4.95 149.048 6.05C149.215 7.11667 149.298 8.63333 149.298 10.6C149.298 12.5667 149.215 14.0667 149.048 15.1C148.915 16.1333 148.565 17.1 147.998 18C147.465 18.9 146.615 19.5333 145.448 19.9C144.315 20.2667 142.798 20.45 140.898 20.45H134.548V15.7H138.248C139.115 15.7 139.665 15.5833 139.898 15.35C140.165 15.1167 140.298 14.75 140.298 14.25V7.1C140.298 6.56667 140.165 6.18333 139.898 5.95C139.665 5.71667 139.115 5.6 138.248 5.6H134.548V0.849998ZM139.348 22H145.548C146.548 22 147.265 22.2833 147.698 22.85C148.131 23.3833 148.348 24.2667 148.348 25.5V37H141.148C140.615 37 140.181 36.8167 139.848 36.45C139.515 36.0833 139.348 35.6 139.348 35V22ZM168.955 5.6H164.305C163.772 5.6 163.505 5.73333 163.505 6V37H158.255C157.122 37 156.372 36.8167 156.005 36.45C155.672 36.0833 155.505 35.3167 155.505 34.15V3.7C155.505 2.53333 155.672 1.76667 156.005 1.4C156.372 1.03333 157.122 0.849998 158.255 0.849998H168.955V5.6ZM170.955 0.849998H176.205C177.338 0.849998 178.072 1.03333 178.405 1.4C178.772 1.76667 178.955 2.53333 178.955 3.7V34.1C178.955 35.2667 178.772 36.05 178.405 36.45C178.038 36.8167 177.305 37 176.205 37H170.955V20.25H165.505V15.5H170.955V0.849998Z" fill="#1D1C22"/>
</svg>
